Coordinates
version=1
nRows=16
nColumns=36
inDegrees=yes

Units are S.I. units (second, meters, Newtons, ...)
If the header above contains a line with 'inDegrees', this indicates whether rotational values are in degrees (yes) or radians (no).

endheader
time	pelvis_tilt	pelvis_list	pelvis_rotation	pelvis_tx	pelvis_ty	pelvis_tz	hip_flexion_r	hip_adduction_r	hip_rotation_r	knee_angle_r	knee_angle_r_beta	ankle_angle_r	subtalar_angle_r	mtp_angle_r	hip_flexion_l	hip_adduction_l	hip_rotation_l	knee_angle_l	knee_angle_l_beta	ankle_angle_l	subtalar_angle_l	mtp_angle_l	lumbar_extension	lumbar_bending	lumbar_rotation	arm_flex_r	arm_add_r	arm_rot_r	elbow_flex_r	pro_sup_r	arm_flex_l	arm_add_l	arm_rot_l	elbow_flex_l	pro_sup_l
      2.53333330	     -9.18060202	      2.24377084	      1.92838401	      0.33494723	      1.33240939	     -0.04035830	      9.96529124	     -4.80221625	    -11.81648695	      0.63869472	      0.01114733	    -32.10944821	      3.58644404	     -7.49999987	     10.92636169	     -4.37773591	    -11.56638282	      0.83420323	      0.01455959	    -29.31633211	      3.49460025	     -7.49999987	     -2.27656806	     -3.98589735	     -4.46519177	    129.68598881	    -20.89080487	     47.24283460	    103.22289460	     97.75420578	    119.31296337	    -27.28767462	     41.07290187	    113.48008768	     91.86980527
      2.55000000	     -8.90953849	      1.98067886	      1.88498320	      0.33536036	      1.34829785	     -0.04168799	      9.67310906	     -4.00622052	    -11.45584044	      0.95216805	      0.01661847	    -31.74191448	      2.80566922	     -7.49999987	     10.57805137	     -4.73155954	    -10.45704748	      1.08883043	      0.01900368	    -25.95045350	      3.81962057	     -7.49999987	     -2.77333495	     -3.38537683	     -4.55101064	    131.10108966	    -20.99046001	     47.82655412	    102.24670309	     99.37451264	    120.52699494	    -28.38034589	     40.01978995	    112.86885184	     92.25385794
      2.56666670	     -8.59992899	      1.89284728	      1.91473425	      0.33566796	      1.38534125	     -0.04216690	      9.47310079	     -3.79452993	    -10.76730299	      1.31500465	      0.02295116	    -31.32777277	      2.71522673	     -7.49999987	     10.37008255	     -4.78044978	     -9.10857314	      1.35577539	      0.02366274	    -23.15813047	      3.58711287	     -7.49999987	     -3.08805340	     -3.24867393	     -4.95019909	    129.56791313	    -22.08773703	     46.79241256	    103.38811649	    102.32410759	    120.15085913	    -29.18335970	     40.23692996	    113.31332072	     94.12710221
      2.58333330	     -8.43605270	      1.76108699	      1.89706044	      0.33267032	      1.40055589	     -0.03811822	      9.54778421	     -3.52786956	     -8.98878482	      1.63391374	      0.02851717	    -30.08447109	      2.69344818	     -7.49999987	     10.45339173	     -4.71889399	     -7.96447862	      1.42620359	      0.02489195	    -19.76970381	      3.75365728	     -7.49999987	     -3.51217874	     -3.01186278	     -5.31489156	    129.26860558	    -23.09078125	     48.12322624	    103.23439505	    101.26120450	    120.46019997	    -30.16392241	     40.32210791	    112.98043616	     92.57074818
      2.60000000	     -8.45339314	      1.99424293	      2.57927068	      0.33685110	      1.42365351	     -0.03419576	      9.48409468	     -3.59359790	     -7.84877365	      1.52472200	      0.02661142	    -28.34577508	      3.09368438	     -7.49999987	     10.56612699	     -4.41260345	     -6.67207244	      1.58521182	      0.02766717	    -17.13132305	      4.14873552	     -7.49999987	     -3.27909177	     -3.72807136	     -6.01646882	    126.88561574	    -24.57500028	     46.27423292	    103.70124584	    102.05406569	    119.30056117	    -30.74852295	     40.62264195	    112.95779780	     93.69239310
      2.61666670	     -8.29679687	      2.11762055	      2.80015731	      0.33752806	      1.44016340	     -0.03617215	      9.33565871	     -3.83152017	     -6.63029884	      1.40256579	      0.02447939	    -26.36596021	      3.31746118	     -7.49999987	     10.53110213	     -4.19284163	     -6.26526485	      1.57742657	      0.02753129	    -14.53189234	      4.52193022	     -7.49999987	     -3.08966059	     -4.06124284	     -5.73279973	    124.47935245	    -26.25264791	     44.90516014	    103.98533038	    100.25992569	    117.57078091	    -30.40051759	     39.78900083	    112.78902177	     91.74015884
      2.63333330	     -8.25165354	      2.21291409	      2.89777099	      0.33647518	      1.45018620	     -0.03664951	      9.36107789	     -4.15801765	     -5.37288401	      1.27606864	      0.02227160	    -24.86323143	      2.66503418	     -7.49999987	     10.38119210	     -4.01437029	     -5.61467156	      1.49302040	      0.02605812	    -12.16223983	      4.55330687	     -7.49999987	     -2.88998372	     -4.91997410	     -5.32880770	    121.22682699	    -28.70290425	     42.28821078	    105.45875073	    103.00843168	    118.03723686	    -29.16500854	     41.32663113	    111.08653974	     95.81212083
      2.65000000	     -8.20905155	      2.25718600	      2.79229257	      0.33698901	      1.46021121	     -0.03788900	      9.39958283	     -4.41328855	     -5.25394338	      1.20962780	      0.02111199	    -24.03759482	      1.79990309	     -7.49999987	     10.10749503	     -3.88118830	     -5.37807103	      1.43860056	      0.02510832	    -10.50226039	      4.20979843	     -7.49999987	     -2.72101695	     -4.85566308	     -4.64974245	    119.97479898	    -29.46583884	     42.22691400	    105.79190282	    102.94325354	    117.23233702	    -30.13896877	     41.90070091	    111.25332867	     95.87369484
      2.66666670	     -8.47264065	      2.33405598	      2.64174161	      0.33652739	      1.46430501	     -0.03763780	      9.87194145	     -4.61069354	     -4.98099084	      1.05921322	      0.01848676	    -24.07762195	      0.29710512	     -7.49999987	     10.34690267	     -3.78492237	     -5.54324494	      1.53658022	      0.02681838	     -8.93924249	      3.54256444	     -7.49999987	     -2.23800838	     -4.83227126	     -4.07059481	    118.77648610	    -30.09280275	     41.32186206	    106.46674583	    102.82984303	    115.95545189	    -31.45583219	     42.63087768	    110.86262765	     96.08901143
      2.68333330	     -8.56720731	      2.33373306	      2.68580832	      0.33740109	      1.47185538	     -0.03749952	      9.98362313	     -4.72779309	     -4.82737353	      0.99717886	      0.01740405	    -24.03143617	     -0.44918874	     -7.49999987	     10.45221697	     -3.67203895	     -5.15854881	      1.69806955	      0.02963690	     -7.99627409	      3.07300998	     -7.49999987	     -1.89352837	     -4.81020822	     -3.77535767	    117.55343670	    -31.02916291	     40.50241229	    106.94139270	    102.67013188	    114.58577259	    -32.30067664	     42.91477046	    110.36379339	     96.27889030
      2.70000000	     -8.63155455	      2.27358041	      2.65708084	      0.33708439	      1.47009176	     -0.03648147	     10.22518859	     -4.75371340	     -4.36669381	      0.92132164	      0.01608010	    -23.72626838	     -0.96923339	     -7.49999987	     10.60180318	     -3.70735175	     -5.08816240	      1.86634716	      0.03257390	     -7.21961146	      2.65877381	     -7.49999987	     -1.70137792	     -4.58229145	     -3.32812860	    117.49378445	    -31.53648138	     41.16206266	    106.46443506	    102.25463262	    113.38014875	    -32.97653566	     42.94398164	    109.44535595	     96.57784485
      2.71666670	     -8.77024846	      2.20242308	      2.58774607	      0.33777259	      1.47344290	     -0.03676272	     10.39998887	     -4.78514248	     -4.17629728	      0.82493050	      0.01439775	    -23.54890042	     -1.26839709	     -7.49999987	     10.78921467	     -3.73838964	     -4.64748860	      1.91333171	      0.03339394	     -6.68508564	      2.46458203	     -7.49999987	     -1.26788045	     -4.47755241	     -2.71555061	    116.84087716	    -33.25518504	     42.52490119	    106.69905154	    101.71654935	    112.18404054	    -33.05065185	     42.74994851	    108.58384853	     96.15205043
      2.73333330	     -8.91597879	      2.01163416	      2.58887790	      0.33322109	      1.46755008	     -0.03159748	     10.69060821	     -4.53788986	     -3.65075063	      0.69965842	      0.01221134	    -23.53135079	     -1.73906574	     -7.49999987	     11.09686933	     -4.05479467	     -4.94783388	      1.97218037	      0.03442104	     -6.03261136	      2.81953129	     -7.49999987	     -0.91526126	     -4.35178055	     -2.72545569	    116.05065753	    -33.94242297	     43.43413554	    105.60900800	     98.63234891	    111.66503897	    -33.45088876	     43.17071248	    107.89905442	     93.20398700
      2.75000000	     -8.97321324	      1.68090125	      2.76066861	      0.33371393	      1.46416909	     -0.03323382	     10.78196742	     -4.37093505	     -3.44574727	      0.71879562	      0.01254535	    -23.81216409	     -1.65227120	     -7.49999987	     11.32135282	     -4.47211671	     -4.41077971	      2.05909544	      0.03593799	     -6.33520218	      2.10483136	     -7.49999987	     -0.74070351	     -4.10527255	     -2.88789116	    115.26836447	    -35.50261642	     44.38824231	    106.12396965	    100.80157683	    111.39475312	    -34.00291161	     43.41099582	    107.39141227	     95.99151836
      2.76666670	     -9.01425927	      1.48244504	      2.91551052	      0.33322329	      1.45408481	     -0.03246031	     10.95971101	     -4.29629861	     -2.92451867	      0.66035056	      0.01152529	    -24.06360428	     -1.51622706	     -7.49999987	     11.58464407	     -4.78595417	     -4.30505271	      2.35264841	      0.04106146	     -6.54405689	      2.00871546	     -7.49999987	     -0.52388231	     -3.83072281	     -2.75603036	    114.77599899	    -36.99408080	     45.96501930	    106.59306250	    100.49655621	    110.72085246	    -35.13560815	     44.50352559	    107.77821709	     95.75871384
      2.78333330	     -9.01886311	      1.27770448	      3.22962024	      0.33010281	      1.44730132	     -0.02858279	     11.03974444	     -4.20096048	     -2.29172258	      0.65109850	      0.01136381	    -24.30433177	     -1.12795045	     -7.49999987	     12.02093919	     -5.06831604	     -3.85255846	      2.82650865	      0.04933188	     -7.11179869	      1.66619416	     -7.49999987	     -0.41007018	     -3.68686195	     -2.60821390	    113.93356479	    -38.36869555	     46.89586970	    107.42019811	     99.01160346	    109.92175654	    -36.08419659	     45.66902751	    108.30424003	     94.52076352
